<svg width="80" height="80" viewBox="0 0 80 80" fill="none" xmlns="http://www.w3.org/2000/svg">
<path d="M41.3641 43.3901C42.8835 39.8681 45.5713 36.978 48.9739 35.2074C52.3765 33.4367 56.2857 32.8939 60.042 33.6706C63.7983 34.4472 67.1718 36.4957 69.5932 39.4705C72.0147 42.4453 73.336 46.1643 73.3341 50.0001C73.3341 62.8867 60.0008 73.3334 43.3341 73.3334C29.7441 73.3334 16.1574 70.6001 8.76411 65.1267C7.34411 64.0734 6.66078 62.3534 6.69745 60.5867C7.06078 42.4101 8.75744 6.66675 33.3341 6.66675C35.9863 6.66675 38.5298 7.72032 40.4052 9.59568C42.2805 11.471 43.3341 14.0146 43.3341 16.6667C43.3341 18.4349 42.6317 20.1306 41.3815 21.3808C40.1312 22.631 38.4356 23.3334 36.6674 23.3334C32.9841 23.3334 31.2008 21.8534 30.0008 20.0001" stroke="#008095" stroke-width="2" stroke-linecap="round" stroke-linejoin="round"/>
<path d="M50 46.6666C47.9883 45.157 45.661 44.1222 43.1925 43.6399C40.7241 43.1576 38.1785 43.2402 35.7465 43.8815C33.3145 44.5229 31.0592 45.7063 29.1496 47.3432C27.24 48.9801 25.7256 51.0279 24.72 53.3332" stroke="#008095" stroke-width="2" stroke-linecap="round" stroke-linejoin="round"/>
<path d="M33.2134 22.7498C26.7301 26.5898 31.6667 43.3331 26.6667 49.9998" stroke="#008095" stroke-width="2" stroke-linecap="round" stroke-linejoin="round"/>
</svg>
