<svg width="80" height="80" viewBox="0 0 80 80" fill="none" xmlns="http://www.w3.org/2000/svg">
<path d="M54.9187 11.6668C68.252 9.99992 73.252 33.3334 54.9187 33.3334" stroke="#008095" stroke-width="2" stroke-linecap="round"/>
<path d="M24.9187 11.7579C13.252 9.99992 6.58537 33.3333 24.9187 33.333" stroke="#008095" stroke-width="2" stroke-linecap="round"/>
<circle cx="39.9185" cy="23.3333" r="12.3333" stroke="#008095" stroke-width="2"/>
<path d="M54.9187 33.3333C73.252 30 84.9187 51.6667 71.5854 54.9999" stroke="#008095" stroke-width="2" stroke-linecap="round"/>
<path d="M21.5852 33.3334C7.95144 29.8003 -5.08146 51.6667 8.25187 55.0001" stroke="#008095" stroke-width="2" stroke-linecap="round"/>
<path d="M56.5853 70H23.252C19.252 70 18.252 65.5556 18.252 63.3333C18.252 50 27.1408 45.5556 31.5853 45H44.9186C59.5853 45 62.1408 57.2222 61.5853 63.3333C61.5853 68.6667 58.252 70 56.5853 70Z" stroke="#008095" stroke-width="2" stroke-linecap="round"/>
</svg>
