<svg width="80" height="80" viewBox="0 0 80 80" fill="none" xmlns="http://www.w3.org/2000/svg">
<g clip-path="url(#clip0_2418_21735)">
<path d="M69.1689 42.2274L40.0034 71.1128L10.838 42.2274C8.91424 40.3554 7.39895 38.1054 6.38751 35.619C5.37608 33.1327 4.89041 30.4638 4.96109 27.7805C5.03177 25.0972 5.65727 22.4576 6.7982 20.028C7.93913 17.5983 9.57078 15.4312 11.5904 13.6631C13.61 11.895 15.9738 10.5642 18.533 9.75452C21.0922 8.94485 23.7913 8.67385 26.4604 8.95857C29.1295 9.2433 31.7107 10.0776 34.0415 11.4089C36.3723 12.7402 38.4022 14.5397 40.0034 16.694C41.6115 14.5553 43.6438 12.7715 45.973 11.4544C48.3022 10.1372 50.8782 9.31497 53.5398 9.03914C56.2014 8.76332 58.8913 9.03983 61.4411 9.85139C63.9909 10.6629 66.3457 11.9921 68.3583 13.7556C70.3708 15.5191 71.9976 17.679 73.137 20.1001C74.2764 22.5213 74.9037 25.1515 74.9798 27.8263C75.0559 30.5011 74.5791 33.1627 73.5792 35.6448C72.5793 38.1268 71.0779 40.3757 69.1689 42.2507" stroke="#008095" stroke-width="2" stroke-linecap="round" stroke-linejoin="round"/>
<path d="M40.0054 16.6707L27.1998 29.4762C26.4708 30.2055 26.0613 31.1944 26.0613 32.2256C26.0613 33.2567 26.4708 34.2456 27.1998 34.9749L29.3114 37.0865C31.9946 39.7697 36.35 39.7697 39.0332 37.0865L42.922 33.1977C45.2425 30.8772 48.3899 29.5736 51.6716 29.5736C54.9533 29.5736 58.1007 30.8772 60.4212 33.1977L69.1709 41.9474" stroke="#008095" stroke-width="2" stroke-linecap="round" stroke-linejoin="round"/>
<path d="M41.95 53.6138L49.7274 61.3912" stroke="#008095" stroke-width="2" stroke-linecap="round" stroke-linejoin="round"/>
<path d="M51.6699 43.8921L59.4474 51.6695" stroke="#008095" stroke-width="2" stroke-linecap="round" stroke-linejoin="round"/>
</g>
<defs>
<clipPath id="clip0_2418_21735">
<rect width="80" height="80" fill="white"/>
</clipPath>
</defs>
</svg>
