<svg width="80" height="80" viewBox="0 0 80 80" fill="none" xmlns="http://www.w3.org/2000/svg">
<path d="M7.79715 71.8595L31.0853 48.5713M60.4114 38.2153L53.4403 59.1285C53.3291 59.4638 53.1386 59.7672 52.885 60.0131C52.6315 60.259 52.3224 60.4401 51.9839 60.5411L9.24991 73.2427C8.86491 73.357 8.45593 73.3636 8.06746 73.2616C7.679 73.1597 7.32594 72.9531 7.04671 72.6645C6.76748 72.3758 6.57277 72.0161 6.48378 71.6244C6.39479 71.2328 6.41492 70.8243 6.54199 70.4433L20.4183 28.8218C20.5177 28.5229 20.6803 28.249 20.895 28.0185C21.1097 27.788 21.3714 27.6065 21.6625 27.4861L41.3754 19.3696C41.7762 19.2041 42.217 19.161 42.6422 19.2456C43.0675 19.3303 43.4582 19.539 43.765 19.8454L59.8808 35.9685C60.1691 36.2568 60.3715 36.6197 60.4652 37.0165C60.559 37.4134 60.5403 37.8285 60.4114 38.2153Z" stroke="#008095" stroke-width="2" stroke-linecap="round" stroke-linejoin="round"/>
<path d="M60.8395 36.9272L71.1882 26.5749C72.5603 25.2024 73.331 23.3412 73.331 21.4005C73.331 19.4599 72.5603 17.5987 71.1882 16.2262L63.4304 8.46106C62.7507 7.78114 61.9438 7.24178 61.0556 6.87379C60.1675 6.50581 59.2156 6.31641 58.2542 6.31641C57.2929 6.31641 56.3409 6.50581 55.4528 6.87379C54.5646 7.24178 53.7577 7.78114 53.0781 8.46106L42.7294 18.8134M38.8432 40.8061C38.3333 40.2965 37.728 39.8923 37.0619 39.6166C36.3959 39.3408 35.682 39.199 34.9611 39.1992C34.2402 39.1994 33.5264 39.3415 32.8605 39.6176C32.1945 39.8936 31.5895 40.2981 31.0798 40.8079C30.5702 41.3178 30.166 41.9231 29.8903 42.5891C29.6146 43.2552 29.4727 43.9691 29.4729 44.69C29.4731 45.4109 29.6152 46.1247 29.8913 46.7906C30.1673 47.4566 30.5718 48.0616 31.0817 48.5713C32.1114 49.6005 33.5078 50.1785 34.9637 50.1782C36.4196 50.1779 37.8157 49.5992 38.845 48.5694C39.8742 47.5397 40.4522 46.1433 40.4519 44.6874C40.4516 43.2315 39.8729 41.8354 38.8432 40.8061Z" stroke="#008095" stroke-width="2" stroke-linecap="round" stroke-linejoin="round"/>
</svg>
