<svg width="36" height="36" viewBox="0 0 36 36" fill="none" xmlns="http://www.w3.org/2000/svg">
<g clip-path="url(#clip0_3836_38299)">
<path d="M27.9531 0C32.3972 9.90834e-05 35.9999 3.60275 36 8.04688V27.9531C35.9999 32.3972 32.3972 35.9999 27.9531 36H8.04688C3.60275 35.9999 9.9376e-05 32.3972 0 27.9531V8.04688C9.90861e-05 3.60275 3.60275 9.93733e-05 8.04688 0H27.9531ZM3.48438 21.4648C3.15599 21.4648 2.87424 21.5806 2.63965 21.8115C2.40506 22.0425 2.2894 22.3207 2.29297 22.6455C2.28936 22.9776 2.40502 23.2592 2.63965 23.4902C2.87427 23.7213 3.1559 23.8369 3.48438 23.8369C3.69729 23.8369 3.89251 23.7843 4.06934 23.6797C4.24954 23.5715 4.39375 23.4273 4.50195 23.2471C4.61385 23.0666 4.67217 22.8657 4.67578 22.6455C4.67214 22.3207 4.5507 22.0425 4.3125 21.8115C4.07796 21.5807 3.80186 21.4649 3.48438 21.4648ZM18.2109 12.2822V23.3711H24.7754V21.6875H20.2197V18.6611H24.1406V16.9766H20.2197V13.9668H24.4336V12.2822H18.2109ZM6.59863 12.2061V23.2939H8.60742V15.7412H8.69922L13.9238 23.2939H15.7109V12.2061H13.7129V19.7637H13.6152L8.39648 12.2061H6.59863ZM25.1699 12.2061V13.8896H28.5977V23.2939H30.5898V13.8896H34.0176V12.2061H25.1699Z" fill="#008095"/>
</g>
<defs>
<clipPath id="clip0_3836_38299">
<rect width="36" height="36" fill="white"/>
</clipPath>
</defs>
</svg>
