<svg width="220" height="32" viewBox="0 0 220 32" fill="none" xmlns="http://www.w3.org/2000/svg">
<path d="M52.6072 8.69344C51.5762 8.22205 50.3354 7.99542 48.9121 7.99542H41.9963V23.9954H45.7188V19.5807H48.9121C50.3445 19.5807 51.5762 19.345 52.6072 18.8736C53.6291 18.4022 54.432 17.7223 55.0067 16.8793C55.5633 16.009 55.8553 14.9847 55.8553 13.7699C55.8553 12.5643 55.5724 11.558 55.0067 10.6878C54.4411 9.81752 53.6473 9.14669 52.6072 8.69344ZM51.2569 15.8368C50.673 16.3172 49.8245 16.5711 48.7114 16.5711H45.7188V11.0141H48.7114C49.8427 11.0141 50.6912 11.2589 51.2569 11.7393C51.8408 12.2198 52.1237 12.8997 52.1237 13.7881C52.1237 14.6764 51.8317 15.3473 51.2569 15.8458V15.8368Z" fill="#1D1D1B"/>
<path d="M70.4169 18.8464C71.4479 18.4022 72.2508 17.7405 72.8165 16.8793C73.373 16.009 73.665 14.9847 73.665 13.7699C73.665 12.5643 73.3913 11.558 72.8165 10.6878C72.2599 9.81752 71.457 9.14669 70.4169 8.69344C69.3768 8.23111 68.1451 7.99542 66.731 7.99542H59.8152V23.9954H63.5285V19.5172H66.731C66.731 19.5172 66.8313 19.5172 66.8952 19.5172L69.9972 24.0045H73.9752L70.4169 18.8555H70.4443L70.4169 18.8464ZM69.0758 11.7303C69.6597 12.2107 69.9334 12.8815 69.9334 13.7699C69.9334 14.6674 69.6414 15.3382 69.0758 15.8368C68.4918 16.3172 67.6433 16.5711 66.5211 16.5711H63.5285V11.0141H66.5211C67.6525 11.0141 68.501 11.2589 69.0758 11.7393V11.7303Z" fill="#1D1D1B"/>
<path d="M91.7205 10.0532C90.9359 9.30082 90.0144 8.72971 88.9561 8.32178C87.9068 7.91385 86.739 7.71442 85.4799 7.71442C84.2209 7.71442 83.053 7.91385 82.0038 8.33085C80.9546 8.75691 80.0239 9.32801 79.2393 10.0714C78.4547 10.8238 77.8251 11.685 77.3963 12.6912C76.9675 13.6974 76.7485 14.7943 76.7485 16C76.7485 17.2056 76.9675 18.2844 77.3963 19.2906C77.8251 20.2969 78.4364 21.1671 79.2393 21.9195C80.0239 22.6719 80.9546 23.243 82.0129 23.66C83.0804 24.068 84.2482 24.2855 85.5073 24.2855C86.7572 24.2855 87.9068 24.077 88.9561 23.6782C90.0144 23.2702 90.9359 22.6991 91.7205 21.9467C92.5052 21.1943 93.1347 20.315 93.5635 19.2997C93.9923 18.2844 94.2113 17.1966 94.2113 16C94.2113 14.8034 93.9923 13.6884 93.5635 12.6821C93.1347 11.6759 92.5234 10.7966 91.7205 10.0532ZM90.0874 18.0578C89.8319 18.6833 89.4761 19.209 89.0199 19.6804C88.5637 20.1518 88.0346 20.5053 87.4324 20.7682C86.8394 21.0221 86.1825 21.149 85.4526 21.149C84.7318 21.149 84.084 21.0221 83.4727 20.7682C82.8705 20.5053 82.3322 20.1518 81.8852 19.6804C81.4472 19.209 81.0914 18.6833 80.836 18.0578C80.5805 17.4323 80.4528 16.7524 80.4528 15.9818C80.4528 15.2204 80.5805 14.5405 80.836 13.915C81.0914 13.2895 81.429 12.7546 81.8852 12.2833C82.3505 11.8209 82.8705 11.4583 83.4727 11.2045C84.084 10.9507 84.7409 10.8238 85.4526 10.8238C86.1642 10.8238 86.8211 10.9507 87.4324 11.2045C88.0346 11.4583 88.5637 11.8209 89.0199 12.2833C89.4761 12.7546 89.8319 13.2895 90.0874 13.915C90.3429 14.5405 90.4706 15.2204 90.4706 15.9818C90.4706 16.7524 90.3429 17.4323 90.0874 18.0578Z" fill="#1D1D1B"/>
<path d="M102.331 12.3014C102.797 11.8391 103.344 11.4855 103.983 11.2317C104.612 10.9779 105.315 10.851 106.072 10.851C106.902 10.851 107.65 11.0051 108.335 11.2952C109.019 11.5852 109.649 12.0566 110.251 12.6821L112.596 10.4793C111.82 9.58184 110.871 8.89289 109.731 8.4215C108.599 7.95011 107.313 7.71442 105.908 7.71442C104.631 7.71442 103.463 7.91385 102.395 8.32178C101.328 8.72971 100.397 9.30082 99.6125 10.0532C98.8279 10.7966 98.2075 11.6759 97.7786 12.6821C97.3407 13.6884 97.1309 14.7943 97.1309 16C97.1309 17.2056 97.3407 18.3116 97.7786 19.3178C98.2075 20.315 98.8187 21.1943 99.5851 21.9467C100.361 22.6991 101.291 23.2702 102.359 23.6782C103.417 24.077 104.585 24.2855 105.844 24.2855C106.984 24.2855 108.125 24.1223 109.275 23.7779C110.415 23.4334 111.428 22.9257 112.304 22.2549V15.7552H108.928V20.4328C108.691 20.5597 108.435 20.7048 108.189 20.7864C107.495 21.0311 106.784 21.158 106.063 21.158C105.333 21.158 104.603 21.0311 103.965 20.7682C103.335 20.5053 102.788 20.1427 102.331 19.6986C101.857 19.2362 101.501 18.6923 101.255 18.0578C100.999 17.4232 100.872 16.7524 100.872 16.009C100.872 15.2748 100.999 14.5586 101.255 13.924C101.501 13.3076 101.857 12.7546 102.331 12.3014Z" fill="#1D1D1B"/>
<path d="M128.8 23.9954H132.677L125.515 7.99542H121.856L114.767 23.9954H118.545L119.968 20.5597H127.367L128.781 23.9954H128.8ZM121.145 17.7495L123.681 11.6487L126.227 17.7495H121.145Z" fill="#1D1D1B"/>
<path d="M220 21.7836C220 21.0403 219.398 20.4329 218.659 20.4329C217.911 20.4329 217.309 21.0403 217.309 21.7836C217.309 22.527 217.911 23.1253 218.659 23.1253C219.398 23.1253 220 22.527 220 21.7836Z" fill="#1D1D1B"/>
<path d="M140.66 10.0532H145.669V23.1252H146.691V10.0532H151.7V9.13763H140.66V10.0532Z" fill="#1D1D1B"/>
<path d="M160.796 16.4713H168.223V15.5648H160.796V10.0532H169.099V9.13763H159.783V23.1252H169.4V22.2096H160.796V16.4713Z" fill="#1D1D1B"/>
<path d="M179.619 11.7303C180.175 11.1682 180.841 10.7331 181.607 10.434C182.365 10.1258 183.195 9.97165 184.08 9.97165C184.892 9.97165 185.649 10.0986 186.379 10.3705C187.1 10.6243 187.757 11.0504 188.359 11.6396L188.989 10.9779C188.377 10.3252 187.647 9.83567 186.799 9.51839C185.941 9.20111 185.02 9.02887 184.044 9.02887C183.003 9.02887 182.055 9.21017 181.179 9.56371C180.303 9.92632 179.536 10.4158 178.879 11.0504C178.223 11.685 177.712 12.4374 177.356 13.3076C177 14.1688 176.827 15.1116 176.827 16.136C176.827 17.1694 177 18.1122 177.356 18.9733C177.712 19.8345 178.223 20.5869 178.861 21.2215C179.509 21.8561 180.285 22.3547 181.16 22.7082C182.055 23.0617 183.003 23.243 184.044 23.243C185.084 23.243 185.941 23.0799 186.799 22.7626C187.647 22.4272 188.377 21.9467 188.989 21.285L188.359 20.6232C187.757 21.2215 187.1 21.6566 186.379 21.9105C185.649 22.1643 184.892 22.3003 184.08 22.3003C183.195 22.3003 182.365 22.1461 181.607 21.847C180.841 21.5388 180.184 21.1037 179.619 20.5507C179.053 19.9886 178.615 19.3269 178.296 18.5926C177.976 17.8402 177.821 17.0243 177.821 16.1541C177.821 15.2748 177.976 14.4589 178.296 13.7065C178.615 12.9631 179.044 12.3105 179.619 11.7575V11.7303Z" fill="#1D1D1B"/>
<path d="M208.312 9.13763V15.5648H198.997V9.13763H197.984V23.1252H198.997V16.4713H208.312V23.1252H209.334V9.13763H208.312Z" fill="#1D1D1B"/>
<path d="M30.2998 31.9909H5.78444L0 26.1892V0H24.5154L30.2998 5.79263V32V31.9909Z" fill="white"/>
<path d="M30.2998 31.9909H5.78444L0 26.1892V0H24.5154L30.2998 5.79263V32V31.9909ZM6.55082 30.4952H28.8492V6.59037L23.749 1.48669H1.45067V25.3915L6.55082 30.4952Z" fill="#1D1D1B"/>
<path d="M23.749 1.48663V25.4005H1.45068L6.55084 30.5133H28.8492V6.59032L23.749 1.48663Z" fill="#F7C3DB"/>
</svg>
