<svg width="23" height="17" viewBox="0 0 23 17" fill="none" xmlns="http://www.w3.org/2000/svg">
<path d="M-1.9148e-06 17.0029V12.5285C-1.9148e-06 11.1696 0.240292 9.72783 0.720879 8.20321C1.21804 6.66202 1.93063 5.17883 2.85866 3.75364C3.80326 2.31188 4.93844 1.06069 6.2642 8.72612e-05L9.44602 2.58531C8.40199 4.07679 7.49053 5.63456 6.71165 7.25861C5.94934 8.86609 5.56818 10.5896 5.56818 12.4291V17.0029H-1.9148e-06ZM12.7273 17.0029V12.5285C12.7273 11.1696 12.9676 9.72783 13.4482 8.20321C13.9453 6.66202 14.6579 5.17883 15.5859 3.75364C16.5305 2.31188 17.6657 1.06069 18.9915 8.72612e-05L22.1733 2.58531C21.1293 4.07679 20.2178 5.63456 19.4389 7.25861C18.6766 8.86609 18.2955 10.5896 18.2955 12.4291V17.0029H12.7273Z" fill="#EFBED2"/>
</svg>
